# File created by Blade
# Date/Time:  Thu Jan 22 19:18:24 2015
#---------------------------------------------------------
:version 1.10
:name HOM
:units
  mass 1.0
  length 1.000000
  angle deg
:documentation
     Acclaim Skeleton File
:root
   axis xyz
   order TX TY TZ RX RY RZ
   position 0.000000 0.000000 0.000000
   orientation 0 0 0
:bonedata
   begin
      id 1
      name RightUpLeg_dum
      direction -1.000000 0.000000 0.000000
      length 4.478084
      axis 0.0 0.0 0.0 xyz
   end
   begin
      id 2
      name LeftUpLeg_dum
      direction 1.000000 0.000000 0.000000
      length 4.478084
      axis 0.0 0.0 0.0 xyz
   end
   begin
      id 3
      name Spine_dum
      direction 0.000000 1.000000 0.000000
      length 6.068208
      axis 0.0 0.0 0.0 xyz
   end
   begin
      id 4
      name RightUpLeg
      direction 0.000000 -1.000000 0.000000
      length 16.405774
      axis 0.0 0.0 0.0 xyz
      dof rx ry rz
   end
   begin
      id 5
      name RightLeg
      direction 0.000000 -1.000000 0.000000
      length 14.644143
      axis 0.0 0.0 0.0 xyz
      dof rx ry rz
   end
   begin
      id 6
      name RightFoot
      direction 0.000000 -0.258819 0.965926
      length 5.806150
      axis 15.0 0.0 0.0 xyz
      dof rx ry rz
   end
   begin
      id 7
      name RightToeBase
      direction 0.000000 0.000000 1.000000
      length 2.952750
      axis 0.0 0.0 0.0 xyz
      dof rx ry rz
   end
   begin
      id 8
      name LeftUpLeg
      direction 0.000000 -1.000000 0.000000
      length 16.405774
      axis 0.0 0.0 0.0 xyz
      dof rx ry rz
   end
   begin
      id 9
      name LeftLeg
      direction 0.000000 -1.000000 0.000000
      length 14.644143
      axis 0.0 0.0 0.0 xyz
      dof rx ry rz
   end
   begin
      id 10
      name LeftFoot
      direction 0.000000 -0.258819 0.965926
      length 5.806150
      axis 15.0 0.0 0.0 xyz
      dof rx ry rz
   end
   begin
      id 11
      name LeftToeBase
      direction 0.000000 0.000000 1.000000
      length 2.952750
      axis 0.0 0.0 0.0 xyz
      dof rx ry rz
   end
   begin
      id 12
      name Spine
      direction 0.000000 1.000000 0.000000
      length 0.000000
      axis 0.0 0.0 0.0 xyz
      dof rx ry rz
   end
   begin
      id 13
      name Spine_dum1
      direction 0.000000 1.000000 0.000000
      length 10.013923
      axis 0.0 0.0 0.0 xyz
   end
   begin
      id 14
      name Spine_dum2
      direction 0.000000 1.000000 0.000000
      length 10.013923
      axis 0.0 0.0 0.0 xyz
   end
   begin
      id 15
      name Spine_dum3
      direction 0.000000 1.000000 0.000000
      length 15.777476
      axis 0.0 0.0 0.0 xyz
   end
   begin
      id 16
      name RightShoulder
      direction -1.000000 0.000000 0.000000
      length 7.190220
      axis 0.0 0.0 90.0 xyz
      dof rx ry rz
   end
   begin
      id 17
      name RightArm
      direction -1.000000 0.000000 0.000000
      length 10.177469
      axis 0.0 0.0 90.0 xyz
      dof rx ry rz
   end
   begin
      id 18
      name RightForeArm
      direction -1.000000 0.000000 0.000000
      length 8.392114
      axis 0.0 0.0 90.0 xyz
      dof ry rz rx
   end
   begin
      id 19
      name RightHand
      direction -1.000000 0.000000 0.000000
      length 0.000000
      axis 0.0 0.0 90.0 xyz
      dof rx ry rz
   end
   begin
      id 20
      name RightHand_dum1
      direction -1.000000 0.000000 0.000000
      length 3.937000
      axis 0.0 0.0 90.0 xyz
   end
   begin
      id 21
      name RightHand_dum2
      direction 0.000000 0.000000 0.000000
      length 0.000000
      axis 0.0 0.0 90.0 xyz
   end
   begin
      id 22
      name RightHandThumb1
      direction 0.000000 0.000000 1.000000
      length 3.937000
      axis 0.0 0.0 90.0 xyz
      dof rx rz ry
   end
   begin
      id 23
      name LeftShoulder
      direction 1.000000 0.000000 0.000000
      length 7.190220
      axis 0.0 0.0 -90.0 xyz
      dof rx ry rz
   end
   begin
      id 24
      name LeftArm
      direction 1.000000 0.000000 0.000000
      length 10.177469
      axis 0.0 0.0 -90.0 xyz
      dof rx ry rz
   end
   begin
      id 25
      name LeftForeArm
      direction 1.000000 0.000000 0.000000
      length 8.392114
      axis 0.0 0.0 -90.0 xyz
      dof ry rz rx
   end
   begin
      id 26
      name LeftHand
      direction 1.000000 0.000000 0.000000
      length 0.000000
      axis 0.0 0.0 -90.0 xyz
      dof rx ry rz
   end
   begin
      id 27
      name LeftHand_dum1
      direction 1.000000 0.000000 0.000000
      length 3.937000
      axis 0.0 0.0 -90.0 xyz
   end
   begin
      id 28
      name LeftHand_dum2
      direction 0.000000 0.000000 0.000000
      length 0.000000
      axis 0.0 0.0 -90.0 xyz
   end
   begin
      id 29
      name LeftHandThumb1
      direction 0.000000 0.000000 1.000000
      length 3.937000
      axis 0.0 0.0 -90.0 xyz
      dof rx rz ry
   end
   begin
      id 30
      name Head
      direction 0.000000 1.000000 0.000000
      length 4.527550
      axis 0.0 0.0 0.0 xyz
      dof rx ry rz
   end
:hierarchy
   begin
      root RightUpLeg_dum LeftUpLeg_dum Spine_dum
      RightUpLeg_dum RightUpLeg
      LeftUpLeg_dum LeftUpLeg
      Spine_dum Spine
      RightUpLeg RightLeg
      RightLeg RightFoot
      RightFoot RightToeBase
      LeftUpLeg LeftLeg
      LeftLeg LeftFoot
      LeftFoot LeftToeBase
      Spine Spine_dum1 Spine_dum2 Spine_dum3
      Spine_dum1 RightShoulder
      Spine_dum2 LeftShoulder
      Spine_dum3 Head
      RightShoulder RightArm
      RightArm RightForeArm
      RightForeArm RightHand
      RightHand RightHand_dum1 RightHand_dum2
      RightHand_dum2 RightHandThumb1
      LeftShoulder LeftArm
      LeftArm LeftForeArm
      LeftForeArm LeftHand
      LeftHand LeftHand_dum1 LeftHand_dum2
      LeftHand_dum2 LeftHandThumb1
   end

# File created by Blade
# Date/Time:  Thu Jan 22 19:18:16 2015
# Frame Rate: 120.000 fps
#------------------------------------------------------
:FULLY-SPECIFIED
:DEGREES
573
root 3.640177 32.074311 -6.705915 82.855938 -34.970080 13.937176
RightUpLeg -102.109030 -24.988715 -19.610980
RightLeg 4.151041 -0.000000 -0.000000
RightFoot 3.813394 2.836913 13.745888
RightToeBase 7.916916 -0.000000 -0.000000
LeftUpLeg -83.182911 3.635600 -21.390234
LeftLeg 0.297893 -0.000000 -0.000000
LeftFoot -6.838640 10.581835 -28.725048
LeftToeBase 8.702174 -0.000000 -0.000000
Spine 41.419175 -12.771792 11.491619
RightShoulder 0.266903 20.868057 -24.818462
RightArm 59.971022 26.431317 55.351474
RightForeArm 14.024369 -0.000000 49.976903
RightHand 8.545272 -0.000000 0.830540
RightHandThumb1 -24.326973 -0.000000 -32.862282
LeftShoulder -13.650823 -50.362557 62.375465
LeftArm 64.857598 6.904554 -44.511672
LeftForeArm 62.756248 0.000000 38.308655
LeftHand -4.602222 -0.000000 -4.884224
LeftHandThumb1 -26.253704 0.000000 33.147579
Head -49.176098 4.983678 15.128806
574
root 3.647721 32.074266 -6.715829 82.783991 -34.838862 13.953903
RightUpLeg -102.049073 -25.004415 -19.461967
RightLeg 4.131623 -0.000000 -0.000000
RightFoot 3.829160 2.924795 13.758909
RightToeBase 7.907730 -0.000000 -0.000000
LeftUpLeg -83.171778 3.621914 -21.302799
LeftLeg 0.333367 -0.000000 -0.000000
LeftFoot -6.788307 10.552105 -28.655817
LeftToeBase 8.610779 -0.000000 -0.000000
Spine 41.350528 -12.811855 11.384406
RightShoulder 0.345837 20.980886 -24.877897
RightArm 59.698992 26.326177 55.217345
RightForeArm 13.885073 -0.000000 49.539797
RightHand 8.319581 0.000000 1.277623
RightHandThumb1 -24.326973 -0.000000 -32.862282
LeftShoulder -13.523980 -50.482756 62.333600
LeftArm 64.933037 7.084892 -45.087059
LeftForeArm 62.654831 -0.000000 37.911432
LeftHand -4.577945 0.000000 -4.684887
LeftHandThumb1 -26.253704 0.000000 33.147579
Head -49.161571 5.062340 15.017509
575
root 3.656374 32.074786 -6.723885 82.749477 -34.731211 13.960237
RightUpLeg -101.983154 -25.038704 -19.410254
RightLeg 4.106815 -0.000000 -0.000000
RightFoot 3.839781 2.941536 13.809441
RightToeBase 7.921537 -0.000000 -0.000000
LeftUpLeg -83.191746 3.605739 -21.292810
LeftLeg 0.367652 -0.000000 -0.000000
LeftFoot -6.772341 10.494446 -28.654257
LeftToeBase 8.659562 -0.000000 -0.000000
Spine 41.243480 -12.799191 11.309163
RightShoulder 0.328835 20.990728 -24.929722
RightArm 59.569425 26.186463 55.038672
RightForeArm 13.938377 -0.000000 49.004264
RightHand 8.572348 -0.000000 1.026277
RightHandThumb1 -24.326973 -0.000000 -32.862282
LeftShoulder -13.427766 -50.562378 62.277225
LeftArm 65.064775 7.265560 -45.585973
LeftForeArm 62.395212 -0.000000 37.566288
LeftHand -4.679316 -0.000000 -4.572982
LeftHandThumb1 -26.253704 0.000000 33.147579
Head -49.221991 5.048897 14.887126
576
root 3.662971 32.075788 -6.735005 82.709153 -34.602804 13.960170
RightUpLeg -101.885066 -25.068862 -19.382346
RightLeg 4.071711 -0.000000 -0.000000
RightFoot 3.858375 2.917135 13.890647
RightToeBase 7.942692 -0.000000 -0.000000
LeftUpLeg -83.211589 3.605983 -21.233128
LeftLeg 0.402293 -0.000000 -0.000000
LeftFoot -6.704785 10.434231 -28.593568
LeftToeBase 8.655807 -0.000000 -0.000000
Spine 41.162212 -12.819478 11.186309
RightShoulder 0.390807 21.153894 -24.972474
RightArm 59.259258 26.037899 54.826597
RightForeArm 14.446209 -0.000000 48.529154
RightHand 8.725012 -0.000000 1.150811
RightHandThumb1 -24.326973 -0.000000 -32.862282
LeftShoulder -13.350092 -50.607021 62.297770
LeftArm 65.046267 7.438949 -46.172280
LeftForeArm 61.990790 -0.000000 37.316604
LeftHand -4.785763 -0.000000 -4.307450
LeftHandThumb1 -26.253704 0.000000 33.147579
Head -49.223583 5.119145 14.774584
577
root 3.667120 32.075718 -6.749430 82.672623 -34.458833 13.945665
RightUpLeg -101.751111 -25.092574 -19.413889
RightLeg 4.021669 -0.000000 -0.000000
RightFoot 3.858654 2.821359 13.974343
RightToeBase 7.914869 -0.000000 -0.000000
LeftUpLeg -83.241353 3.617446 -21.164562
LeftLeg 0.448605 -0.000000 -0.000000
LeftFoot -6.674863 10.368718 -28.589523
LeftToeBase 8.654478 -0.000000 -0.000000
Spine 41.079677 -12.820371 11.085857
RightShoulder 0.417831 21.187870 -25.048367
RightArm 59.191000 25.968628 54.864737
RightForeArm 14.448506 -0.000000 47.952750
RightHand 8.704790 -0.000000 1.928638
RightHandThumb1 -24.326973 -0.000000 -32.862282
LeftShoulder -13.244424 -50.694027 62.259868
LeftArm 64.951067 7.625703 -46.705297
LeftForeArm 61.644427 -0.000000 37.216401
LeftHand -4.703627 -0.000000 -4.122967
LeftHandThumb1 -26.253704 0.000000 33.147579
Head -49.232718 5.130723 14.655732
578
root 3.673675 32.075493 -6.761293 82.613163 -34.327473 13.950896
RightUpLeg -101.599609 -25.138452 -19.472466
RightLeg 3.978771 -0.000000 -0.000000
RightFoot 3.855849 2.745635 14.117816
RightToeBase 7.942133 -0.000000 -0.000000
LeftUpLeg -83.236721 3.609335 -21.083138
LeftLeg 0.472867 -0.000000 -0.000000
LeftFoot -6.642995 10.330019 -28.629428
LeftToeBase 8.635960 -0.000000 -0.000000
Spine 41.011785 -12.838168 11.011999
RightShoulder 0.367413 21.290782 -25.176618
RightArm 59.068520 25.754292 54.798915
RightForeArm 14.653970 -0.000000 47.350954
RightHand 8.881363 -0.000000 1.973433
RightHandThumb1 -24.326973 -0.000000 -32.862282
LeftShoulder -13.191779 -50.743886 62.220593
LeftArm 64.814945 7.814476 -47.187447
LeftForeArm 61.335193 -0.000000 37.244142
LeftHand -4.733631 0.000000 -3.951317
LeftHandThumb1 -26.253704 0.000000 33.147579
Head -49.278920 5.099890 14.436678
579
root 3.684598 32.075057 -6.768647 82.531314 -34.210913 14.014699
RightUpLeg -101.437706 -25.240455 -19.510336
RightLeg 3.902119 -0.000000 -0.000000
RightFoot 3.851708 2.726994 14.218202
RightToeBase 7.949724 -0.000000 -0.000000
LeftUpLeg -83.204923 3.546005 -20.994177
LeftLeg 0.461364 -0.000000 -0.000000
LeftFoot -6.577782 10.351907 -28.541001
LeftToeBase 8.613976 -0.000000 -0.000000
Spine 40.907597 -12.889500 10.871758
RightShoulder 0.445706 21.400482 -25.224551
RightArm 58.809473 25.682245 54.708415
RightForeArm 14.778586 -0.000000 46.860497
RightHand 8.845236 -0.000000 2.351765
RightHandThumb1 -24.326973 -0.000000 -32.862282
LeftShoulder -13.083356 -50.781905 62.197127
LeftArm 64.590167 8.023968 -47.664121
LeftForeArm 61.098183 -0.000000 37.376753
LeftHand -4.690430 -0.000000 -3.624999
LeftHandThumb1 -26.253704 0.000000 33.147579
Head -49.298834 5.188754 14.301062
580
root 3.696600 32.075588 -6.778926 82.447509 -34.099451 14.067580
RightUpLeg -101.303650 -25.325540 -19.527496
RightLeg 3.858502 -0.000000 -0.000000
RightFoot 3.856194 2.720079 14.255465
RightToeBase 7.962640 -0.000000 -0.000000
LeftUpLeg -83.173002 3.488036 -20.871145
LeftLeg 0.467020 -0.000000 -0.000000
LeftFoot -6.538558 10.387181 -28.468966
LeftToeBase 8.606916 -0.000000 -0.000000
Spine 40.820489 -12.975104 10.737551
RightShoulder 0.466481 21.562383 -25.388383
RightArm 58.582083 25.500082 54.710084
RightForeArm 14.842898 -0.000000 46.322565
RightHand 8.796518 -0.000000 2.513138
RightHandThumb1 -24.326973 -0.000000 -32.862282
LeftShoulder -12.991965 -50.831847 62.112676
LeftArm 64.262586 8.261392 -47.947372
LeftForeArm 60.716787 -0.000000 37.697604
LeftHand -4.699741 -0.000000 -3.406461
LeftHandThumb1 -26.253704 0.000000 33.147579
Head -49.275830 5.128759 14.132827
581
root 3.706933 32.075260 -6.790155 82.377677 -33.980286 14.108033
RightUpLeg -101.131739 -25.431183 -19.692326
RightLeg 3.866622 -0.000000 -0.000000
RightFoot 3.809287 2.648537 14.274297
RightToeBase 7.909701 -0.000000 -0.000000
LeftUpLeg -83.157093 3.435409 -20.755885
LeftLeg 0.482154 -0.000000 -0.000000
LeftFoot -6.529799 10.415470 -28.455870
LeftToeBase 8.600933 -0.000000 -0.000000
Spine 40.716559 -12.916118 10.642706
RightShoulder 0.429665 21.591063 -25.466194
RightArm 58.326981 25.415854 54.512644
RightForeArm 14.814456 -0.000000 45.780707
RightHand 8.911534 0.000000 2.814519
RightHandThumb1 -24.326973 -0.000000 -32.862282
LeftShoulder -12.934936 -50.981425 62.160631
LeftArm 63.847029 8.571210 -48.366064
LeftForeArm 60.568907 -0.000000 38.089566
LeftHand -4.649559 0.000000 -3.144662
LeftHandThumb1 -26.253704 0.000000 33.147579
Head -49.254039 5.083423 14.045308
582
root 3.719396 32.073886 -6.800343 82.248995 -33.862533 14.177519
RightUpLeg -100.936012 -25.549902 -19.848382
RightLeg 3.877714 -0.000000 -0.000000
RightFoot 3.772254 2.631184 14.376132
RightToeBase 7.974181 -0.000000 -0.000000
LeftUpLeg -83.075157 3.376050 -20.607437
LeftLeg 0.462526 -0.000000 -0.000000
LeftFoot -6.480666 10.463888 -28.387359
LeftToeBase 8.584913 -0.000000 -0.000000
Spine 40.666084 -12.916069 10.558026
RightShoulder 0.344467 21.636519 -25.636050
RightArm 58.123006 25.316380 54.451127
RightForeArm 14.723215 -0.000000 45.324422
RightHand 8.906774 -0.000000 2.966397
RightHandThumb1 -24.326973 -0.000000 -32.862282
LeftShoulder -12.834429 -51.037351 62.087262
LeftArm 63.387237 8.805972 -48.640548
LeftForeArm 60.296682 -0.000000 38.684999
LeftHand -4.589632 -0.000000 -2.694286
LeftHandThumb1 -26.253704 0.000000 33.147579
Head -49.261765 4.961703 13.902750
583
root 3.724535 32.072609 -6.818177 82.192522 -33.783942 14.191545
RightUpLeg -100.810756 -25.623712 -20.031397
RightLeg 3.895012 -0.000000 -0.000000
RightFoot 3.799625 2.608235 14.408594
RightToeBase 7.852957 -0.000000 -0.000000
LeftUpLeg -83.065348 3.371716 -20.517852
LeftLeg 0.466596 -0.000000 -0.000000
LeftFoot -6.448819 10.457501 -28.393353
LeftToeBase 8.570705 -0.000000 -0.000000
Spine 40.575639 -12.805173 10.358926
RightShoulder 0.328755 21.752380 -25.675944
RightArm 57.752432 25.211939 54.281719
RightForeArm 14.427218 -0.000000 44.990499
RightHand 8.622309 -0.000000 3.251491
RightHandThumb1 -24.326973 -0.000000 -32.862282
LeftShoulder -12.845043 -51.188410 62.220399
LeftArm 62.824311 9.221947 -48.845737
LeftForeArm 60.045837 -0.000000 39.278956
LeftHand -4.582566 -0.000000 -2.236974
LeftHandThumb1 -26.253704 0.000000 33.147579
Head -49.226402 4.939754 13.881457
